# xmcd CD database file
#
# Track frame offsets:
#	150
#	61485
#	121879
#	167393
#	210680
#	247342
#
# Disc length: 3858 seconds
#
# Revision: 0
# Processed by: cddbd v1.5.1PL0 Copyright (c) Steve Scherf et al.
# Submitted via: CDex 1.51
#
DISCID=520f1006
DTITLE=Soulive - Best of bowery ballroom I
DYEAR=2003
DGENRE=Jazz
TTITLE0=Stepping
TTITLE1=Bridge to bama
TTITLE2=Ne-ne
TTITLE3=Cannonball
TTITLE4=Kalen
TTITLE5=Hurry up and Wait
EXTD=YEAR: 2003
EXTT0=
EXTT1=
EXTT2=
EXTT3=
EXTT4=
EXTT5=
PLAYORDER=
